<?xml version="1.0" encoding="UTF-8" standalone="no"?><!--Created with Inkscape (http://www.inkscape.org/)--><svg viewBox="0 0 270.93333 270.93333" version="1.1" id="svg1" xmlns="http://www.w3.org/2000/svg" xmlns:svg="http://www.w3.org/2000/svg" fill="currentColor"><defs id="defs1"/><g id="layer1"><path d="M 94.591797,18.820312 C 72.178986,18.820313 51.357071,26.05239 33.851562,39.9375 15.638588,54.347764 6.1191406,76.083549 6.1191406,101.00586 c 0,19.85672 6.9462684,37.88767 20.3378904,51.2793 l 0.06836,0.0684 0.06836,0.0684 c 13.535216,13.13119 31.470363,19.95118 51.144531,19.95118 h 5.994141 c 2.772283,15.84656 7.730621,30.47281 15.017578,43.6875 12.533059,22.90073 34.811149,36.05078 60.990229,36.05078 26.60368,0 50.50073,-17.91025 71.97266,-48.05274 l 0.0117,-0.0176 c 21.4084,-29.66056 33.08984,-57.66573 33.08984,-84.42188 0,-23.050713 -7.35692,-44.533505 -21.49023,-62.835937 -13.23814,-17.523413 -24.8726,-29.662109 -41.57617,-29.662109 -12.62512,0 -22.15701,8.385023 -30.13672,19.273437 -7.84884,10.543232 -13.04098,21.892961 -14.91406,33.75586 l -6.71485,42.525389 28.80078,-32.001952 c 2.51403,-2.793369 4.3891,-4.676592 5.88867,-6.103516 4.35707,0.525593 8.13988,3.127353 13.20508,12.292969 l 0.0469,0.08789 0.0508,0.08594 c 6.10343,10.645509 9.12695,22.159489 9.12695,35.410159 0,20.45908 -3.25678,36.96927 -9.14453,49.75 -6.39403,13.87973 -13.20181,23.45699 -19.46484,28.95312 l -0.10352,0.0898 -0.10351,0.0937 c -3.71562,3.40599 -6.74901,5.80584 -8.63282,7.04297 -0.64802,0.42557 -0.90122,0.45329 -1.20703,0.54883 -2.76049,-0.27382 -5.00796,-1.30291 -7.92383,-4.06055 -3.47102,-3.28267 -7.46784,-9.32624 -11.04492,-18.41796 l -0.006,-0.0156 -0.006,-0.0176 c -7.33861,-18.49942 -11.17578,-40.42315 -11.17578,-65.97851 0,-22.30131 3.05089,-40.971031 8.72852,-56.082032 6.12095,-15.834488 13.01657,-27.036112 19.73242,-33.751954 l 21.7793,-21.78125 z m -51.25,23.804688 c -0.01367,0.0099 -0.0254,0.02135 -0.03906,0.03125 -0.0159,0.01169 -0.03294,0.0215 -0.04883,0.0332 z m 54.519531,9.007812 h 9.849612 C 102.02044,61.082499 96.943042,70.825107 92.65625,80.929687 84.895257,99.223457 81.078125,119.29329 81.078125,140.75 c 0,2.01766 0.09588,3.98388 0.154297,5.9707 C 67.103213,138.14187 57.852158,129.08636 52.990234,120.0918 47.07123,109.14164 44.462891,99.294989 44.462891,90.189453 c 0,-12.120206 3.861902,-19.6717 13.839843,-26.892578 l 0.04492,-0.0332 0.04297,-0.03125 c 10.356787,-7.63132 23.002125,-11.59961 39.470703,-11.59961 z m 103.886722,1.00586 c 0.38035,0 9.70167,4.272778 21.26172,19.582031 l 0.043,0.05664 0.0449,0.05859 c 10.99388,14.218754 16.20117,29.438867 16.20117,47.283207 0,10.32656 -2.64002,21.88519 -8.02735,34.5332 0.80149,-6.95507 1.34571,-14.1122 1.34571,-21.70507 0,-17.23747 -4.17754,-33.529252 -12.46485,-48.017587 -6.44835,-11.624102 -15.92658,-20.530028 -27.0957,-23.992187 5.2144,-6.711073 8.59228,-7.798828 8.69141,-7.798828 z m -85.32813,37.666015 c -2.35845,12.414403 -3.64844,25.712673 -3.64844,40.130863 0,12.66148 0.98617,24.64343 2.72657,36.10547 L 108.00781,162.25 c -0.90131,-6.81099 -1.41211,-13.94036 -1.41211,-21.5 0,-18.45471 3.2254,-34.94368 9.55078,-49.853516 0.0849,-0.200121 0.18792,-0.391961 0.27344,-0.591797 z m -6.69531,82.068363 h 6.68945 c 2.1437,11.8112 5.18905,23.00297 9.33008,33.44336 9.7e-4,0.002 9.8e-4,0.005 0.002,0.008 1.5362,3.90136 3.24276,7.4647 5.04493,10.86719 -3.55659,-3.35102 -6.73706,-7.54326 -9.66211,-12.89063 l -0.0117,-0.0215 -0.0117,-0.0195 c -5.17944,-9.38774 -8.95935,-19.83866 -11.38086,-31.38672 z m 85.80469,57.77148 -0.20703,0.18555 c 0.0142,-0.0125 0.0268,-0.0285 0.041,-0.041 0.0583,-0.0533 0.10756,-0.0909 0.16602,-0.14453 z" id="path3"/><path fill="var(--primary-clr)" d="m 94.590994,31.57958 h 63.137186 q -12.82868,12.828671 -22.63883,38.234469 -9.55863,25.405802 -9.55863,60.621741 0,40.24682 12.07405,70.68349 12.07404,30.68819 32.449,30.68819 4.77931,0 16.85335,-11.06788 12.32559,-10.81633 22.63883,-33.20361 10.31324,-22.3873 10.31324,-55.08784 0,-22.89037 -10.81633,-41.756058 -10.56478,-19.117235 -26.16042,-19.117235 -2.76697,0 -6.03703,2.766969 -3.01851,2.766967 -7.54627,7.797819 2.26388,-14.337928 12.57713,-28.172766 10.31324,-14.086385 19.87186,-14.086385 12.82868,0 31.44283,24.651171 18.86569,24.399629 18.86569,55.087805 0,34.46134 -30.6882,76.97204 -30.43665,42.76225 -61.62792,42.76225 -33.70672,0 -49.80544,-29.43049 -16.098724,-29.17894 -16.098724,-69.17421 0,-29.93357 10.564784,-54.836276 10.56479,-24.902716 27.1666,-47.03846 H 97.861048 q -27.921227,0 -47.038457,14.086385 -19.117234,13.834839 -19.117234,37.228298 0,17.356423 10.061703,35.970573 10.061702,18.61416 35.97058,33.45517 -25.405793,0 -42.259145,-16.35027 -16.601809,-16.60181 -16.601809,-42.25914 0,-32.952079 22.890374,-51.063143 Q 64.90897,31.57958 94.590994,31.57958 Z" id="path4"/></g></svg>