<svg viewBox="0 0 335 144" xmlns="http://www.w3.org/2000/svg" fill="currentColor"><path d="M36.9448 7.44166C28.1911 7.44166 20.0587 10.2663 13.2217 15.6894C6.10825 21.3175 2.39026 29.8068 2.39026 39.5407C2.39026 47.2961 5.10325 54.3384 10.3336 59.5687L10.3603 59.5954L10.387 59.6222C15.6734 64.7508 22.6783 67.4144 30.3624 67.4144H32.7035C33.7863 73.6036 35.7228 79.3161 38.5689 84.4774C43.4639 93.4217 52.165 98.5576 62.3897 98.5576C72.7803 98.5576 82.1137 91.5625 90.4999 79.7898L90.5045 79.7829C98.8659 68.1985 103.428 57.2605 103.428 46.8105C103.428 37.8076 100.555 29.4171 95.0349 22.2688C89.8645 15.4247 85.3205 10.6837 78.7966 10.6837C73.8656 10.6837 70.1428 13.9586 67.0262 18.2113C63.9607 22.3291 61.9328 26.762 61.2012 31.3952L58.5786 48.0043L69.8273 35.5053C70.8092 34.4143 71.5415 33.6788 72.1272 33.1215C73.8289 33.3268 75.3064 34.343 77.2847 37.9227L77.303 37.9571L77.3228 37.9906C79.7066 42.1484 80.8875 46.6454 80.8875 51.8207C80.8875 59.8114 79.6155 66.2597 77.316 71.2515C74.8187 76.6724 72.1598 80.413 69.7136 82.5596L69.6732 82.5947L69.6328 82.6313C68.1816 83.9616 66.9968 84.8989 66.2611 85.382C66.008 85.5483 65.9091 85.5591 65.7896 85.5964C64.7115 85.4894 63.8337 85.0875 62.6949 84.0105C61.3392 82.7284 59.7782 80.3679 58.3811 76.817L58.3787 76.8109L58.3764 76.804C55.5102 69.5788 54.0115 61.0161 54.0115 51.035C54.0115 42.3248 55.2031 35.033 57.4206 29.1311C59.8112 22.9467 62.5044 18.5717 65.1274 15.9487L73.6337 7.44165L36.9448 7.44166ZM16.9282 16.739C16.9229 16.7429 16.9183 16.7473 16.913 16.7512C16.9068 16.7558 16.9001 16.7596 16.8939 16.7642L16.9282 16.739ZM38.2218 20.2572H42.0687C39.8462 23.9479 37.8632 27.7531 36.1889 31.6996C33.1577 38.8445 31.6668 46.6832 31.6668 55.0635C31.6668 55.8515 31.7043 56.6194 31.7271 57.3954C26.2087 54.0448 22.5955 50.508 20.6966 46.995C18.3848 42.7183 17.3661 38.8725 17.3661 35.3161C17.3661 30.5824 18.8744 27.633 22.7715 24.8128L22.789 24.7998L22.8058 24.7876C26.8508 21.8071 31.7897 20.2572 38.2218 20.2572ZM78.7966 20.65C78.9452 20.65 82.5858 22.3188 87.1008 28.2981L87.1175 28.3203L87.1351 28.3431C91.4289 33.8965 93.4627 39.841 93.4627 46.8104C93.4627 50.8437 92.4316 55.3581 90.3275 60.298C90.6406 57.5816 90.8531 54.7862 90.8531 51.8207C90.8531 45.0883 89.2215 38.7252 85.9847 33.0666C83.4662 28.5266 79.7643 25.0482 75.402 23.696C77.4386 21.0749 78.7579 20.65 78.7966 20.65ZM45.4702 35.3612C44.5491 40.2098 44.0452 45.4037 44.0452 51.035C44.0452 55.9801 44.4304 60.6599 45.1101 65.1366L42.1847 63.4607C41.8327 60.8005 41.6332 58.016 41.6332 55.0635C41.6332 47.8556 42.8929 41.4156 45.3634 35.5923C45.3966 35.5141 45.4368 35.4392 45.4702 35.3612ZM42.8552 67.4144H45.4679C46.3052 72.0275 47.4946 76.3986 49.1119 80.4763C49.1123 80.4771 49.1123 80.4783 49.1127 80.4794C49.7127 82.0032 50.3792 83.3949 51.0831 84.7238C49.694 83.415 48.4518 81.7776 47.3094 79.6891L47.3048 79.6807L47.3003 79.6731C45.2773 76.0066 43.801 71.9247 42.8552 67.4144ZM76.3678 89.9781L76.2869 90.0506C76.2925 90.0457 76.2974 90.0394 76.3029 90.0345C76.3257 90.0137 76.3449 89.999 76.3678 89.9781Z"/><path d="M36.9448 12.425H61.6041C58.2638 15.7654 55.3165 20.7431 52.7621 27.3582C50.2733 33.9733 49.0289 41.8656 49.0289 51.0351C49.0289 61.5145 50.6008 70.7167 53.7446 78.6418C56.8884 86.6323 61.1129 90.6276 66.4181 90.6276C67.6626 90.6276 69.8567 89.1867 73.0005 86.3049C76.2098 83.4885 79.1571 79.1658 81.8425 73.3366C84.5278 67.5074 85.8705 60.3356 85.8705 51.8211C85.8705 45.8609 84.4623 40.4247 81.646 35.5125C78.8952 30.5348 75.4894 28.0459 71.4286 28.0459C70.7081 28.0459 69.9222 28.4061 69.0707 29.1266C68.2848 29.8471 67.3023 30.8623 66.1234 32.1722C66.7129 28.4389 68.3503 24.7711 71.0356 21.1688C73.721 17.501 76.3081 15.6671 78.7969 15.6671C82.1372 15.6671 86.2308 18.8764 91.0775 25.2951C95.9897 31.6482 98.4458 38.82 98.4458 46.8106C98.4458 55.7836 94.4505 65.8045 86.46 76.8734C78.5349 88.0078 70.5116 93.575 62.3901 93.575C53.6136 93.575 47.1295 89.7434 42.9377 82.0804C38.7459 74.4828 36.6501 65.477 36.6501 55.0631C36.6501 47.2691 38.0255 40.13 40.7763 33.6458C43.5272 27.1617 47.064 21.0378 51.3867 15.2741H38.222C30.9519 15.2741 24.828 17.108 19.8503 20.7758C14.8726 24.3781 12.3837 29.2248 12.3837 35.316C12.3837 39.8352 13.6936 44.5182 16.3135 49.3649C18.9333 54.2117 23.6163 58.5672 30.3624 62.4315C23.7473 62.4315 18.2456 60.3028 13.8574 56.0456C9.53461 51.7228 7.37323 46.2211 7.37323 39.5405C7.37323 30.9605 10.3533 24.3126 16.3135 19.5969C22.3391 14.8157 29.2162 12.425 36.9448 12.425Z" fill="var(--dark)"/><path d="M130.918 83.1005C124.428 83.1005 119.024 80.9277 114.707 76.5821C110.389 72.2365 108.23 66.7058 108.23 59.9899C108.23 53.3586 110.375 47.8702 114.664 43.5246C118.953 39.1508 124.244 36.9639 130.537 36.9639C136.942 36.9639 142.12 38.9392 146.071 42.8897C150.021 46.8403 151.997 51.8066 151.997 57.7889V61.9793H112.886V55.8842H143.362C143.193 52.6391 141.951 49.9443 139.637 47.7997C137.323 45.6551 134.304 44.5828 130.579 44.5828C126.657 44.5828 123.369 46.0078 120.717 48.8579C118.064 51.7079 116.738 55.4186 116.738 59.9899C116.738 64.6741 118.163 68.4553 121.013 71.3336C123.891 74.1836 127.32 75.6086 131.299 75.6086C133.302 75.6086 135.038 75.3264 136.505 74.7621C138.001 74.1977 139.341 73.4076 140.526 72.3917C141.739 71.3477 143.009 69.7816 144.335 67.6934L151.023 71.2066C149.387 74.2541 147.623 76.5821 145.732 78.1906C143.842 79.799 141.711 81.0265 139.341 81.873C136.999 82.6913 134.191 83.1005 130.918 83.1005ZM163.324 82V21.3876H172.213V82H163.324ZM201.684 83.1005C196.69 83.1005 192.81 81.6191 190.044 78.6562C187.279 75.6933 185.896 71.6157 185.896 66.4236V38.0644H194.785V64.4342C194.785 67.9897 195.575 70.6987 197.155 72.5611C198.764 74.4234 201.134 75.3546 204.266 75.3546C207.568 75.3546 210.277 74.1695 212.393 71.7992C214.509 69.4006 215.567 66.4236 215.567 62.8681V38.0644H224.456V82H215.906V71.3336L220.096 75.5239H215.779C214.453 77.8378 212.548 79.6861 210.065 81.0688C207.61 82.4233 204.816 83.1005 201.684 83.1005ZM238.67 82V38.0644H247.305V45.895L246.12 44.6251H247.389C248.744 42.3959 250.719 40.5617 253.315 39.1226C255.911 37.6835 258.691 36.9639 261.654 36.9639C266.62 36.9639 270.5 38.4736 273.294 41.4929C276.087 44.5123 277.484 48.5898 277.484 53.7255V82H268.595V55.5032C268.595 52.2017 267.791 49.6056 266.183 47.715C264.603 45.8244 262.133 44.8791 258.775 44.8791C255.643 44.8791 252.991 46.0502 250.818 48.3923C248.645 50.7061 247.559 53.6126 247.559 57.1117V82H238.67ZM311.205 83.1005C304.715 83.1005 299.311 80.9277 294.994 76.5821C290.676 72.2365 288.518 66.7058 288.518 59.9899C288.518 53.3586 290.662 47.8702 294.951 43.5246C299.24 39.1508 304.531 36.9639 310.824 36.9639C317.229 36.9639 322.407 38.9392 326.358 42.8897C330.309 46.8403 332.284 51.8066 332.284 57.7889V61.9793H293.174V55.8842H323.649C323.48 52.6391 322.238 49.9443 319.924 47.7997C317.61 45.6551 314.591 44.5828 310.866 44.5828C306.944 44.5828 303.657 46.0078 301.004 48.8579C298.352 51.7079 297.025 55.4186 297.025 59.9899C297.025 64.6741 298.45 68.4553 301.3 71.3336C304.179 74.1836 307.607 75.6086 311.586 75.6086C313.589 75.6086 315.325 75.3264 316.792 74.7621C318.288 74.1977 319.628 73.4076 320.813 72.3917C322.027 71.3477 323.296 69.7816 324.623 67.6934L331.31 71.2066C329.674 74.2541 327.91 76.5821 326.019 78.1906C324.129 79.799 321.998 81.0265 319.628 81.873C317.286 82.6913 314.478 83.1005 311.205 83.1005Z"/><path d="M12.8185 135L6.98338 113.353H9.67417L13.7557 129.437L14.0883 130.782H14.1639L14.572 129.437L19.5001 113.353H22.0851L26.8167 129.437L27.2248 130.782H27.3004L27.633 129.437L31.6389 113.353H34.4507L28.6004 135H26.0155L21.2688 119.067L20.8304 117.525H20.7548L20.2862 119.067L15.4186 135H12.8185ZM37.0028 135V119.535H39.4215V122.302L39.0436 122.015H39.5122C39.8246 121.178 40.4091 120.478 41.2658 119.913C42.1325 119.349 43.0243 119.067 43.9414 119.067C44.1833 119.067 44.4453 119.087 44.7275 119.127C45.0097 119.168 45.2566 119.218 45.4682 119.278C45.6899 119.339 45.8008 119.369 45.8008 119.369V122.03C45.8008 122.03 45.6496 121.989 45.3473 121.909C45.045 121.818 44.7376 121.753 44.4252 121.712C44.1228 121.672 43.8759 121.652 43.6844 121.652C42.5557 121.652 41.5832 122.1 40.7669 122.997C39.9506 123.894 39.5424 124.998 39.5424 126.308V135H37.0028ZM49.9766 135V119.535H52.5011V135H49.9766ZM51.2313 116.467C50.7576 116.467 50.3495 116.3 50.0068 115.968C49.6743 115.625 49.508 115.217 49.508 114.743C49.508 114.26 49.6743 113.857 50.0068 113.534C50.3495 113.212 50.7576 113.05 51.2313 113.05C51.715 113.05 52.1181 113.212 52.4406 113.534C52.7631 113.857 52.9244 114.26 52.9244 114.743C52.9244 115.217 52.7631 115.625 52.4406 115.968C52.1181 116.3 51.715 116.467 51.2313 116.467ZM63.7053 135.469C62.4859 135.469 61.4932 135.091 60.7273 134.335C59.9613 133.579 59.5784 132.531 59.5784 131.191V115.227H62.118V130.616C62.118 131.483 62.2843 132.118 62.6169 132.521C62.9595 132.924 63.4634 133.126 64.1285 133.126C64.2999 133.126 64.4863 133.11 64.6879 133.08C64.8995 133.04 65.1615 132.974 65.4739 132.884C65.7964 132.783 65.9577 132.732 65.9577 132.732V135.076C65.9577 135.076 65.8166 135.116 65.5344 135.197C65.2522 135.287 64.965 135.353 64.6728 135.393C64.3906 135.443 64.0681 135.469 63.7053 135.469ZM56.9027 121.818V119.535H65.9123V121.818H56.9027ZM77.2922 135.469C75.0449 135.469 73.1905 134.698 71.7292 133.156C70.278 131.614 69.5524 129.644 69.5524 127.245C69.5524 124.887 70.2679 122.937 71.699 121.395C73.1301 119.843 74.929 119.067 77.0957 119.067C79.3129 119.067 81.0966 119.742 82.4471 121.093C83.7975 122.433 84.4727 124.106 84.4727 126.111V127.759H71.0339V125.658H81.8122C81.7517 124.428 81.2932 123.41 80.4365 122.604C79.59 121.788 78.4764 121.38 77.0957 121.38C75.6243 121.38 74.42 121.914 73.4828 122.982C72.5556 124.05 72.092 125.471 72.092 127.245C72.092 129.039 72.601 130.475 73.6188 131.553C74.6468 132.622 75.9116 133.156 77.4132 133.156C78.1287 133.156 78.7384 133.06 79.2423 132.869C79.7563 132.667 80.2199 132.39 80.6331 132.037C81.0463 131.674 81.5048 131.105 82.0087 130.329L84.1553 131.357C83.6111 132.455 83.0064 133.277 82.3413 133.821C81.6761 134.365 80.9455 134.773 80.1493 135.045C79.3532 135.328 78.4008 135.469 77.2922 135.469ZM97.7328 135V113.353H100.272V135H97.7328ZM112.629 135.469C110.513 135.469 108.744 134.698 107.323 133.156C105.912 131.604 105.207 129.644 105.207 127.275C105.207 124.877 105.917 122.917 107.338 121.395C108.769 119.863 110.538 119.097 112.644 119.097C113.773 119.097 114.816 119.359 115.774 119.883C116.731 120.407 117.446 121.087 117.92 121.924L117.981 121.909V113.353H120.505V135H118.102V132.158L118.374 132.642L118.041 132.687C117.537 133.534 116.791 134.209 115.804 134.713C114.826 135.217 113.768 135.469 112.629 135.469ZM112.916 133.186C114.378 133.186 115.607 132.632 116.605 131.523C117.603 130.404 118.102 128.984 118.102 127.26C118.102 125.527 117.598 124.116 116.59 123.027C115.582 121.939 114.358 121.395 112.916 121.395C111.475 121.395 110.246 121.939 109.228 123.027C108.22 124.106 107.716 125.522 107.716 127.275C107.716 128.999 108.215 130.415 109.213 131.523C110.221 132.632 111.455 133.186 112.916 133.186ZM132.705 135.469C130.458 135.469 128.603 134.698 127.142 133.156C125.691 131.614 124.965 129.644 124.965 127.245C124.965 124.887 125.681 122.937 127.112 121.395C128.543 119.843 130.342 119.067 132.508 119.067C134.725 119.067 136.509 119.742 137.86 121.093C139.21 122.433 139.885 124.106 139.885 126.111V127.759H126.447V125.658H137.225C137.164 124.428 136.706 123.41 135.849 122.604C135.003 121.788 133.889 121.38 132.508 121.38C131.037 121.38 129.833 121.914 128.895 122.982C127.968 124.05 127.505 125.471 127.505 127.245C127.505 129.039 128.014 130.475 129.031 131.553C130.059 132.622 131.324 133.156 132.826 133.156C133.541 133.156 134.151 133.06 134.655 132.869C135.169 132.667 135.632 132.39 136.046 132.037C136.459 131.674 136.917 131.105 137.421 130.329L139.568 131.357C139.024 132.455 138.419 133.277 137.754 133.821C137.089 134.365 136.358 134.773 135.562 135.045C134.766 135.328 133.813 135.469 132.705 135.469ZM149.302 135.469C147.579 135.469 146.173 134.985 145.085 134.017C144.007 133.04 143.467 131.79 143.467 130.268C143.467 128.716 144.072 127.472 145.281 126.535C146.501 125.597 148.068 125.129 149.983 125.129C150.819 125.129 151.646 125.224 152.462 125.416C153.288 125.597 153.943 125.834 154.427 126.126V125.174C154.427 124.035 154.024 123.113 153.218 122.408C152.411 121.702 151.389 121.349 150.149 121.349C149.484 121.349 148.919 121.43 148.456 121.591C148.002 121.743 147.619 121.934 147.307 122.166C146.995 122.398 146.692 122.675 146.4 122.997C146.108 123.31 145.962 123.466 145.962 123.466L144.027 122.03C144.027 122.03 144.223 121.818 144.616 121.395C145.009 120.962 145.453 120.574 145.947 120.231C146.45 119.878 147.025 119.596 147.67 119.384C148.325 119.173 149.161 119.067 150.179 119.067C152.225 119.067 153.848 119.616 155.047 120.715C156.246 121.813 156.846 123.305 156.846 125.189V135H154.427V131.311L155.304 132.732H154.336C153.843 133.559 153.142 134.224 152.235 134.728C151.328 135.222 150.351 135.469 149.302 135.469ZM149.529 133.201C150.89 133.201 152.044 132.717 152.991 131.75C153.948 130.782 154.427 129.639 154.427 128.318V128.288C153.913 127.945 153.298 127.678 152.583 127.487C151.867 127.295 151.122 127.2 150.346 127.2C149.025 127.2 147.982 127.462 147.216 127.986C146.45 128.5 146.067 129.271 146.067 130.299C146.067 131.165 146.39 131.866 147.035 132.4C147.69 132.934 148.521 133.201 149.529 133.201ZM167.357 135.469C166.37 135.469 165.493 135.338 164.727 135.076C163.971 134.824 163.296 134.441 162.701 133.927C162.107 133.413 161.653 132.853 161.341 132.249C161.028 131.634 160.872 131.327 160.872 131.327L163.14 130.299C163.14 130.299 163.271 130.53 163.533 130.994C163.795 131.448 164.117 131.846 164.5 132.188C164.883 132.531 165.312 132.788 165.785 132.959C166.269 133.131 166.853 133.216 167.539 133.216C168.547 133.216 169.353 133.02 169.957 132.627C170.572 132.224 170.88 131.639 170.88 130.873C170.88 130.248 170.633 129.749 170.139 129.377C169.655 129.004 168.652 128.646 167.131 128.303C165.095 127.84 163.634 127.22 162.747 126.444C161.87 125.668 161.432 124.67 161.432 123.451C161.432 122.191 161.991 121.148 163.11 120.322C164.238 119.485 165.609 119.067 167.221 119.067C168.088 119.067 168.859 119.168 169.534 119.369C170.209 119.571 170.829 119.893 171.394 120.337C171.958 120.77 172.371 121.224 172.633 121.697C172.905 122.161 173.041 122.393 173.041 122.393L170.849 123.421C170.849 123.421 170.733 123.254 170.502 122.922C170.28 122.589 170.008 122.302 169.685 122.06C169.363 121.808 168.99 121.627 168.567 121.516C168.154 121.405 167.68 121.349 167.146 121.349C166.219 121.349 165.458 121.551 164.863 121.954C164.279 122.357 163.986 122.826 163.986 123.36C163.986 123.945 164.213 124.438 164.667 124.841C165.12 125.235 166.183 125.623 167.856 126.005C169.932 126.479 171.383 127.104 172.21 127.88C173.036 128.656 173.449 129.593 173.449 130.692C173.449 132.133 172.875 133.292 171.726 134.169C170.587 135.035 169.131 135.469 167.357 135.469ZM191.011 135V114.532H193.535V135H191.011ZM184.843 115.771V113.353H199.688V115.771H184.843ZM203.802 135V113.353H206.326V121.818H206.417C206.86 121.022 207.525 120.367 208.412 119.853C209.309 119.329 210.287 119.067 211.345 119.067C213.159 119.067 214.56 119.606 215.547 120.684C216.545 121.763 217.044 123.234 217.044 125.098V135H214.52V125.492C214.52 124.181 214.197 123.169 213.552 122.453C212.907 121.737 211.975 121.38 210.755 121.38C209.556 121.38 208.518 121.879 207.641 122.876C206.775 123.874 206.341 125.038 206.341 126.368V135H203.802ZM227.16 135.469C225.437 135.469 224.031 134.985 222.942 134.017C221.864 133.04 221.325 131.79 221.325 130.268C221.325 128.716 221.93 127.472 223.139 126.535C224.358 125.597 225.926 125.129 227.84 125.129C228.677 125.129 229.503 125.224 230.319 125.416C231.146 125.597 231.801 125.834 232.285 126.126V125.174C232.285 124.035 231.882 123.113 231.075 122.408C230.269 121.702 229.246 121.349 228.007 121.349C227.341 121.349 226.777 121.43 226.314 121.591C225.86 121.743 225.477 121.934 225.165 122.166C224.852 122.398 224.55 122.675 224.258 122.997C223.965 123.31 223.819 123.466 223.819 123.466L221.884 122.03C221.884 122.03 222.081 121.818 222.474 121.395C222.867 120.962 223.31 120.574 223.804 120.231C224.308 119.878 224.882 119.596 225.527 119.384C226.182 119.173 227.019 119.067 228.037 119.067C230.083 119.067 231.705 119.616 232.904 120.715C234.104 121.813 234.703 123.305 234.703 125.189V135H232.285V131.311L233.161 132.732H232.194C231.7 133.559 231 134.224 230.093 134.728C229.186 135.222 228.208 135.469 227.16 135.469ZM227.387 133.201C228.747 133.201 229.901 132.717 230.849 131.75C231.806 130.782 232.285 129.639 232.285 128.318V128.288C231.771 127.945 231.156 127.678 230.44 127.487C229.725 127.295 228.979 127.2 228.203 127.2C226.883 127.2 225.84 127.462 225.074 127.986C224.308 128.5 223.925 129.271 223.925 130.299C223.925 131.165 224.248 131.866 224.893 132.4C225.548 132.934 226.379 133.201 227.387 133.201ZM244.942 135.469C243.722 135.469 242.73 135.091 241.964 134.335C241.198 133.579 240.815 132.531 240.815 131.191V115.227H243.355V130.616C243.355 131.483 243.521 132.118 243.854 132.521C244.196 132.924 244.7 133.126 245.365 133.126C245.537 133.126 245.723 133.11 245.925 133.08C246.136 133.04 246.398 132.974 246.711 132.884C247.033 132.783 247.194 132.732 247.194 132.732V135.076C247.194 135.076 247.053 135.116 246.771 135.197C246.489 135.287 246.202 135.353 245.909 135.393C245.627 135.443 245.305 135.469 244.942 135.469ZM238.139 121.818V119.535H247.149V121.818H238.139ZM260.422 135V113.353H262.946V132.581H272.515V135H260.422ZM282.041 135.469C280.318 135.469 278.912 134.985 277.824 134.017C276.745 133.04 276.206 131.79 276.206 130.268C276.206 128.716 276.811 127.472 278.02 126.535C279.24 125.597 280.807 125.129 282.721 125.129C283.558 125.129 284.384 125.224 285.201 125.416C286.027 125.597 286.682 125.834 287.166 126.126V125.174C287.166 124.035 286.763 123.113 285.956 122.408C285.15 121.702 284.127 121.349 282.888 121.349C282.223 121.349 281.658 121.43 281.195 121.591C280.741 121.743 280.358 121.934 280.046 122.166C279.733 122.398 279.431 122.675 279.139 122.997C278.847 123.31 278.7 123.466 278.7 123.466L276.765 122.03C276.765 122.03 276.962 121.818 277.355 121.395C277.748 120.962 278.191 120.574 278.685 120.231C279.189 119.878 279.764 119.596 280.409 119.384C281.064 119.173 281.9 119.067 282.918 119.067C284.964 119.067 286.586 119.616 287.786 120.715C288.985 121.813 289.585 123.305 289.585 125.189V135H287.166V131.311L288.043 132.732H287.075C286.581 133.559 285.881 134.224 284.974 134.728C284.067 135.222 283.089 135.469 282.041 135.469ZM282.268 133.201C283.628 133.201 284.782 132.717 285.73 131.75C286.687 130.782 287.166 129.639 287.166 128.318V128.288C286.652 127.945 286.037 127.678 285.322 127.487C284.606 127.295 283.86 127.2 283.084 127.2C281.764 127.2 280.721 127.462 279.955 127.986C279.189 128.5 278.806 129.271 278.806 130.299C278.806 131.165 279.129 131.866 279.774 132.4C280.429 132.934 281.26 133.201 282.268 133.201ZM300.096 135.469C299.109 135.469 298.232 135.338 297.466 135.076C296.71 134.824 296.035 134.441 295.44 133.927C294.846 133.413 294.392 132.853 294.08 132.249C293.767 131.634 293.611 131.327 293.611 131.327L295.879 130.299C295.879 130.299 296.01 130.53 296.272 130.994C296.534 131.448 296.856 131.846 297.239 132.188C297.622 132.531 298.05 132.788 298.524 132.959C299.008 133.131 299.592 133.216 300.278 133.216C301.285 133.216 302.092 133.02 302.696 132.627C303.311 132.224 303.618 131.639 303.618 130.873C303.618 130.248 303.371 129.749 302.878 129.377C302.394 129.004 301.391 128.646 299.869 128.303C297.834 127.84 296.372 127.22 295.486 126.444C294.609 125.668 294.17 124.67 294.17 123.451C294.17 122.191 294.73 121.148 295.848 120.322C296.977 119.485 298.348 119.067 299.96 119.067C300.827 119.067 301.598 119.168 302.273 119.369C302.948 119.571 303.568 119.893 304.132 120.337C304.697 120.77 305.11 121.224 305.372 121.697C305.644 122.161 305.78 122.393 305.78 122.393L303.588 123.421C303.588 123.421 303.472 123.254 303.24 122.922C303.019 122.589 302.747 122.302 302.424 122.06C302.102 121.808 301.729 121.627 301.306 121.516C300.892 121.405 300.419 121.349 299.885 121.349C298.957 121.349 298.196 121.551 297.602 121.954C297.017 122.357 296.725 122.826 296.725 123.36C296.725 123.945 296.952 124.438 297.405 124.841C297.859 125.235 298.922 125.623 300.595 126.005C302.671 126.479 304.122 127.104 304.949 127.88C305.775 128.656 306.188 129.593 306.188 130.692C306.188 132.133 305.614 133.292 304.465 134.169C303.326 135.035 301.87 135.469 300.096 135.469ZM316.038 135.469C314.819 135.469 313.826 135.091 313.06 134.335C312.294 133.579 311.911 132.531 311.911 131.191V115.227H314.451V130.616C314.451 131.483 314.617 132.118 314.95 132.521C315.293 132.924 315.796 133.126 316.462 133.126C316.633 133.126 316.819 133.11 317.021 133.08C317.233 133.04 317.495 132.974 317.807 132.884C318.129 132.783 318.291 132.732 318.291 132.732V135.076C318.291 135.076 318.15 135.116 317.867 135.197C317.585 135.287 317.298 135.353 317.006 135.393C316.724 135.443 316.401 135.469 316.038 135.469ZM309.236 121.818V119.535H318.245V121.818H309.236ZM324.41 135.181C323.866 135.181 323.407 134.995 323.034 134.622C322.661 134.249 322.475 133.791 322.475 133.246C322.475 132.732 322.661 132.289 323.034 131.916C323.407 131.543 323.866 131.357 324.41 131.357C324.944 131.357 325.398 131.543 325.77 131.916C326.143 132.289 326.33 132.732 326.33 133.246C326.33 133.791 326.143 134.249 325.77 134.622C325.398 134.995 324.944 135.181 324.41 135.181Z"/></svg>